<svg height="87" viewBox="0 0 80 87" width="80" xmlns="http://www.w3.org/2000/svg" xmlns:xlink="http://www.w3.org/1999/xlink"><linearGradient id="a" x1="50%" x2="50%" y1="100%" y2="0%"><stop offset="0" stop-color="#0056ff" stop-opacity="0"/><stop offset="1" stop-color="#0056ff" stop-opacity=".15"/></linearGradient><g fill="none" fill-rule="evenodd" transform="translate(-16 -13)"><path d="m0 0h100v100h-100z"/><g fill="#0056ff" transform="translate(13 13)"><path d="m68.247 0h-36c-3.723 0-6.75 3.027-6.75 6.75v13.5c0 1.242 1.008 2.25 2.25 2.25s2.25-1.008 2.25-2.25v-13.5c0-1.242 1.008-2.25 2.25-2.25h36c1.239 0 2.25 1.008 2.25 2.25v35.982c0 1.251-1.017 2.268-2.268 2.268h-4.482c-.597 0-1.17.237-1.59.66l-9.66 9.66v-8.07c0-1.242-1.008-2.25-2.25-2.25h-9c-1.242 0-2.25 1.008-2.25 2.25s1.008 2.25 2.25 2.25h6.75v11.25c0 .912.549 1.731 1.389 2.079.279.114.57.171.861.171.585 0 1.161-.228 1.59-.66l12.84-12.84h3.552c3.732 0 6.768-3.036 6.768-6.768v-35.982c0-3.723-3.03-6.75-6.75-6.75z"/><path d="m66 24.75c0-1.863-1.512-3.375-3.375-3.375h-.003c-1.863.003-3.375 1.515-3.372 3.378s1.515 3.375 3.378 3.372 3.372-1.512 3.372-3.375z"/><path d="m40.128 28.125c1.863-.003 3.372-1.512 3.372-3.375s-1.512-3.375-3.375-3.375h-.003c-1.863.003-3.375 1.515-3.372 3.378s1.515 3.375 3.378 3.372z"/><circle cx="51.372" cy="24.75" r="3.375"/><path d="m23.247 51.75c6.822 0 12.375-5.553 12.375-12.375s-5.553-12.375-12.375-12.375-12.375 5.553-12.375 12.375 5.553 12.375 12.375 12.375zm0-20.25c4.341 0 7.875 3.534 7.875 7.875s-3.534 7.875-7.875 7.875-7.875-3.534-7.875-7.875 3.534-7.875 7.875-7.875z" fill-rule="nonzero"/><path d="m20.526 51.939c-9.087 1.221-16.287 8.421-17.508 17.511-.165 1.23.699 2.364 1.929 2.529 1.242.183 2.364-.696 2.529-1.932.951-7.083 6.564-12.696 13.65-13.65 8.688-1.167 16.722 4.956 17.889 13.65.15 1.131 1.119 1.95 2.226 1.95.099 0 .201-.006.303-.021 1.233-.165 2.097-1.299 1.929-2.529-1.497-11.148-11.787-19.005-22.947-17.508z"/></g><path d="m68 36 27.7128129 16v32l-27.7128129 16-27.7128129-16v-32z" fill="url(#a)"/></g></svg>