<svg height="80" viewBox="0 0 100 80" width="100" xmlns="http://www.w3.org/2000/svg" xmlns:xlink="http://www.w3.org/1999/xlink"><linearGradient id="a" x1="50%" x2="50%" y1="100%" y2="0%"><stop offset="0" stop-color="#0056ff" stop-opacity="0"/><stop offset="1" stop-color="#0056ff" stop-opacity=".15"/></linearGradient><g fill="none" fill-rule="evenodd" transform="translate(0 -20)"><path d="m0 0h100v100h-100z"/><path d="m50 36 27.7128129 16v32l-27.7128129 16-27.7128129-16v-32z" fill="url(#a)"/><path d="m44.2916667 60.5416667c-2.275 0-4.4291667-.9833334-5.9125-2.7041667l-14.3125-16.0458333h-7.8625c-.8708334 2.4916666-3.1458334 4.1666666-5.7875 4.1666666h-8.33333337c-1.15 0-2.08333333-.9375-2.08333333-2.0833333s.93333333-2.0833333 2.08333333-2.0833333h8.33333337c1.15 0 2.0833333-.9375 2.0833333-2.0833334v-29.1666666c0-1.15000003-.9333333-2.08333337-2.0833333-2.08333337h-8.33333337c-1.15 0-2.08333333-.93333333-2.08333333-2.08333333s.93333333-2.08333333 2.08333333-2.08333333h8.33333337c3.4458333 0 6.25 2.80416666 6.25 6.25000003v1.0875l16.3791666-6.56250003c1.3166667-.525 2.6958334-.79166667 4.0958334-.79166667 2.3625 0 4.625.75 6.5416666 2.17083333l.575.47083334 11.0208334-5.50833334c1.6708333-.83333333 3.55-1.27083333 5.4291666-1.27083333 1.4333334 0 2.8416667.24583333 4.1791667.73333333l19.1625 6.95416667c1.0208333-2.15 3.1333333-3.53333333 5.5333333-3.53333333h8.3333334c1.1458333 0 2.0833333.93333333 2.0833333 2.08333333s-.9375 2.08333333-2.0833333 2.08333333h-8.3333334c-1.1458333 0-2.0833333.93333334-2.0833333 2.08333337v29.1666666c0 1.1458334.9375 2.0833334 2.0833333 2.0833334h8.3333334c1.1458333 0 2.0833333.9375 2.0833333 2.0833333s-.9375 2.0833333-2.0833333 2.0833333h-8.3333334c-2.4958333 0-4.7041666-1.5375-5.6625-3.8458333l-21.7625 4.1333333c-.0833333.3416667-.1791666.6833334-.3083333 1.0125-.9083333 2.2708334-2.6416667 4.05-4.8833333 5.0083334-1.1583334.4958333-2.3708334.75-3.6083334.75-.4291666 0-.8541666-.0291667-1.2791666-.0875-.05 2.2041666-1.0333334 4.2833333-2.7083334 5.7291666-1.4125 1.2166667-3.2166666 1.8833334-5.0791666 1.8833334zm-19.2916667-22.9166667c.5958333 0 1.1625.2583333 1.5583333.7041667l14.9541667 16.7625c.7083333.8208333 1.7166667 1.2833333 2.7833333 1.2833333.8666667 0 1.7041667-.3083333 2.3583334-.875.8-.6875 1.2625-1.6916667 1.2625-2.7541667v-1.7583333l-3.5583334-3.5583333c-.8125-.8125-.8125-2.1333334 0-2.9458334.3916667-.3958333.9166667-.6083333 1.475-.6083333.5583334 0 1.0791667.2166667 1.475.6083333l4.0208334 4.0208334.1958333-.0083334c.5875.2291667 1.2041667.3458334 1.8333333.3458334.675 0 1.3333334-.1333334 1.9708334-.4041667 1.2166666-.5208333 2.1583333-1.4875 2.65-2.7208333.1375-.3458334.2125-.725.2541666-1.0875l-5.5333333-5.5333334c-.8125-.8125-.8125-2.1333333 0-2.9458333.3958333-.3958333.9208333-.6083333 1.475-.6083333s1.0833333.2208333 1.475.6125l5.6375 5.6375h1.2125c2.3 0 4.1666667-1.8666667 4.1666667-4.1666667 0-.8958333-.2958334-1.7833333-.8333334-2.5l-12.425-15.9208333-7.2 2.3625c-.7125.2291666-1.4458333.3458333-2.1791666.3458333-1.1 0-2.2041667-.2666667-3.1958334-.775-1.6708333-.85-2.9041666-2.3083333-3.4833333-4.0958333-.9708333-2.9958334.15-6.1833334 2.675-7.9291667-.95-.46666667-1.9041667-.67083333-2.8791667-.67083333-.875 0-1.7333333.16666666-2.55.49583333l-17.9291666 7.1791667v21.5083333zm44.1458333-5.0333333c1.0916667 1.4625 1.6875 3.2416666 1.6875 5.0333333 0 .9708333-.1708333 1.925-.5041666 2.8291667l13.0041666-2.4708334v-25.9791666l-19.875-7.21250003c-.8833333-.32083334-1.8125-.48333334-2.7541666-.48333334-1.2416667 0-2.4791667.2875-3.5708334.83333334l-14.3916666 7.19166663c-1.2583334.6375-1.8625 2.0791667-1.425 3.4291667.2375.7291667.7416666 1.3208333 1.4208333 1.6666667.4125.2083333.85.3166666 1.3.3166666.2958333 0 .5958333-.05.8875-.1416666l15.0041667-4.9291667.5041666-.0541667c.9 0 1.6875.5791667 1.9708334 1.4375.3541666 1.0875-.2416667 2.2666667-1.3291667 2.625l-3.4541667 1.1333334z" fill="#0056ff" fill-rule="nonzero" transform="translate(0 20)"/></g></svg>