<svg height="86" viewBox="0 0 82 86" width="82" xmlns="http://www.w3.org/2000/svg" xmlns:xlink="http://www.w3.org/1999/xlink"><linearGradient id="a" x1="50%" x2="50%" y1="100%" y2="0%"><stop offset="0" stop-color="#0056ff" stop-opacity="0"/><stop offset="1" stop-color="#0056ff" stop-opacity=".15"/></linearGradient><g fill="none" fill-rule="evenodd" transform="translate(-4 -14)"><path d="m0 0h100v100h-100z"/><path d="m32 36 27.7128129 16v32l-27.7128129 16-27.71281292-16v-32z" fill="url(#a)"/><path d="m16.25 86c-1.242 0-2.25-1.008-2.25-2.25v-67.5c0-1.242 1.008-2.25 2.25-2.25s2.25 1.008 2.25 2.25v2.25h33.75c3.723 0 6.75 3.027 6.75 6.75v6.75h22.503c2.484.003 4.5 2.025 4.497 4.506-.003 1.107-.408 2.169-1.143 2.994l-11.997 13.509c-.759.855-.762 2.139-.003 2.994l12 13.5c1.647 1.857 1.479 4.707-.375 6.354-.822.729-1.881 1.134-2.982 1.134h-38.1c-.036.006-.093.009-.15.009-.036 0-.096-.003-.147-.009h-2.1c-3.723 0-6.75-3.027-6.75-6.75v-6.741h-15.753v20.25c0 1.242-1.008 2.25-2.25 2.25zm65.247-13.509-12-13.5c-2.277-2.556-2.277-6.414 0-8.973l12-13.512-22.497-.006v24.75c0 1.242-1.008 2.25-2.25 2.25-5.337 0-9.954 3.861-11.016 8.991zm-42.744-2.25c0 1.242 1.008 2.25 2.25 2.25h.174c.498-3.42 2.13-6.585 4.587-8.991h-7.011zm15.747-11.241v-33.75c0-1.242-1.008-2.25-2.25-2.25h-33.75v36h17.853c.036-.003.093-.009.15-.009.036 0 .096.003.147.009z" fill="#0056ff" fill-rule="nonzero"/></g></svg>